<?xml version="1.0" encoding="UTF-8" standalone="no"?>
<!DOCTYPE svg PUBLIC "-//W3C//DTD SVG 1.1//EN" "http://www.w3.org/Graphics/SVG/1.1/DTD/svg11.dtd">
<svg version="1.1" xmlns="http://www.w3.org/2000/svg" xmlns:xlink="http://www.w3.org/1999/xlink" preserveAspectRatio="xMidYMid meet" viewBox="0 0 640 640" width="640" height="640"><defs><path d="M571.89 246.16C566.3 291.55 530.64 331.48 492.96 386.85C455.29 442.35 415.36 513.43 357.86 531.13C300.23 548.83 225.02 513.29 165.79 457.79C106.56 402.29 63.31 327.08 67.57 256.01C71.83 184.94 123.47 118.12 182.69 71.53C241.9 24.95 308.75 -1.44 367.71 6.48C426.68 14.39 477.78 56.36 515.59 102.94C553.25 149.53 577.61 200.64 571.89 246.16Z" id="bdDJ0Wf0w"></path><path d="M371.78 364.2C375.72 391.17 371.22 413.5 372.34 446.1C373.11 468.05 382.77 482.71 388.97 502.29C395.16 521.86 229.82 526.79 230.81 508.49C231.79 490.18 243.62 471.43 244.05 448.63C244.48 425.38 241.17 411.43 241.62 373.61C241.96 343.76 269.31 311.88 308.18 311.88C347.03 311.88 367.9 337.84 371.78 364.2Z" id="a7nsI5xav"></path><path d="M148.65 639.14C147.16 620.76 155.35 555.23 180.69 506.29C275.31 453.89 394.03 478.85 440.97 506.29C456.87 522.44 468.36 629.7 464.88 637.4" id="b2Q9wEifl1"></path><path d="M203.27 637.4C204.76 625.48 207.12 606.27 210.96 588.48" id="adzr0HRdq"></path><path d="M413.13 637.4C411.64 625.48 409.28 606.27 405.43 588.48" id="c2Zi3OqW36"></path><path d="M258.64 386.44C264.45 386.43 269.17 391.14 269.17 396.96C269.18 402.76 264.48 407.48 258.67 407.49C252.86 407.5 248.13 402.8 248.12 396.98C248.12 396.98 248.12 396.97 248.12 396.97C248.12 391.16 252.83 386.44 258.64 386.44Z" id="b1LA14lgP5"></path><path d="M355.17 386.44C360.98 386.43 365.7 391.14 365.7 396.96C365.71 402.77 361 407.49 355.18 407.49C355.18 407.49 355.18 407.49 355.18 407.49C349.37 407.49 344.65 402.78 344.65 396.97C344.65 391.16 349.36 386.44 355.17 386.44Z" id="ew8Lznzve"></path><path d="M335.2 222.24C333.53 227.74 333.66 237.45 341.98 237.24C349.28 243.78 356.07 235.31 358.16 231.01C360.24 226.7 365.37 217.37 350.1 215.76C339.48 207.48 336.86 216.73 335.2 222.24Z" id="azwKl5KjH"></path><path d="M357.12 209.86C353.46 211.15 351.4 212.9 350.23 215.95" id="fq8BbXF1"></path><path d="M293.17 252.57C299.98 252.57 305.51 258.09 305.51 264.9C305.51 271.7 300.01 277.22 293.21 277.24C286.39 277.25 280.86 271.74 280.84 264.93C280.84 264.92 280.84 264.92 280.84 264.91C280.84 258.1 286.36 252.57 293.17 252.57Z" id="b59rl3YelI"></path><path d="M195.45 270.35L229.6 261.68L243.44 316.2L209.29 324.84L195.45 270.35Z" id="aq2XbAgBc"></path><path d="M202.64 276.36L226.14 270.39L227.95 277.54L204.45 283.49L202.64 276.36Z" id="a3qygx3iLQ"></path><path d="M206.42 291.26L229.92 285.29" id="b5AwoDKs"></path><path d="M208.4 299.02L231.9 293.05" id="c2Bkk3UuLl"></path><path d="M210.46 307.11L233.98 301.14" id="c1qrWWbHTI"></path><path d="M212.43 314.93L221.66 312.59" id="g1MrreqNfG"></path><path d="M232.26 309.89L235.95 308.96" id="a2jrBqKsKX"></path><path d="M172.8 146.55L261.19 104.47L288.81 162.47L200.42 204.56L172.8 146.55Z" id="eSlBxwCcn"></path><path d="M203.37 191.73L212.16 165.99L228.54 169.09L234.98 137.35L250.8 139.98L255.41 117.59" id="b1gcMAPv2n"></path><path d="M211.22 161.58C213.5 160.5 216.21 161.47 217.29 163.75C218.36 166.01 217.4 168.72 215.14 169.81C212.87 170.89 210.15 169.93 209.06 167.66C209.06 167.66 209.06 167.65 209.06 167.65C207.98 165.37 208.95 162.66 211.22 161.58Z" id="f4yqBZOFd"></path><path d="M233.23 133.95C235.51 132.87 238.23 133.84 239.31 136.11C240.4 138.39 239.43 141.11 237.16 142.19C234.89 143.28 232.17 142.31 231.08 140.05C231.08 140.04 231.08 140.04 231.08 140.03C229.99 137.76 230.96 135.04 233.23 133.95Z" id="d1sGwJiCKf"></path><path d="M414.11 173.33C422.74 173.33 429.73 180.32 429.73 188.94C429.73 197.57 422.74 204.56 414.11 204.56C414.1 204.56 414.09 204.56 414.08 204.56C405.47 204.55 398.49 197.56 398.5 188.94C398.5 180.32 405.49 173.33 414.11 173.33Z" id="b1PO7ItvyE"></path><path d="M440.47 186.22C443.15 195.78 437.58 205.71 428.01 208.4C426.45 208.84 424.83 209.06 423.2 209.07C422.02 209.07 420.85 208.96 419.7 208.73" id="aam0jrClH"></path><path d="M404.64 200.8L398.66 211.54L423.37 215.51L420.67 203" id="cA4zrAx9a"></path><path d="M414.11 185.26C416.15 185.26 417.8 186.91 417.8 188.94C417.8 190.98 416.15 192.63 414.11 192.63C412.08 192.63 410.43 190.98 410.43 188.94C410.43 188.94 410.43 188.94 410.43 188.94C410.43 186.91 412.08 185.26 414.11 185.26Z" id="ajw7Rm8l3"></path><path d="M439.48 181.58C441.51 181.58 443.16 183.23 443.16 185.26C443.16 187.29 441.51 188.94 439.48 188.94C437.44 188.94 435.8 187.29 435.79 185.26C435.79 183.23 437.44 181.58 439.48 181.58Z" id="e3zO9a9QhB"></path><path d="M139.88 71.57L162.97 77.81L140.24 161.99L117.15 155.77L139.88 71.57Z" id="dPLDx5uIj"></path><path d="M124.49 128.6L137.2 132.04" id="b6UC6x0Y0"></path><path d="M120.45 143.54L133.17 146.97" id="c4myhMi34H"></path><path d="M128.52 113.68L141.24 117.12" id="bQvJ0Cv00"></path><path d="M132.55 98.74L145.27 102.17" id="b18It48JYi"></path><path d="M136.58 83.81L149.3 87.24" id="d5wnKg5GKQ"></path><path d="M377.7 54.11L464.88 75.16L450.49 134.61L363.34 113.55L377.7 54.11Z" id="acixPXgsW"></path><path d="M441.18 111.63C446.23 112.85 449.33 117.93 448.11 122.97C446.89 128.02 441.81 131.12 436.77 129.9C436.77 129.9 436.77 129.9 436.77 129.9C431.73 128.68 428.62 123.61 429.84 118.56C431.06 113.52 436.14 110.41 441.18 111.63Z" id="b28Ol96Slw"></path><path d="M432.62 126.3L426.35 142.64L435.1 140.66L440.72 145.87L441.85 128.07" id="g5Pr8CvYpy"></path><path d="M382.85 69.53L451.68 86.15" id="b1xBOkV2HW"></path><path d="M378.86 85.85L420.43 95.88" id="a12dfPWBHG"></path><path d="M239.34 62.22L229.99 52.09L243.44 49.04L256.91 46L252.81 59.18L248.72 72.35L239.34 62.22Z" id="a55GPUAAoT"></path><path d="M425.19 274.77L412.37 279.89L414.34 266.22L416.3 252.55L427.14 261.08L437.99 269.61L425.19 274.77Z" id="bzcVt6MO"></path><path d="M326.69 103.39C330.39 103.39 333.38 106.39 333.38 110.09C333.38 113.78 330.39 116.78 326.69 116.78C323 116.78 320 113.78 320 110.09C320 110.09 320 110.09 320 110.09C320 106.39 323 103.39 326.69 103.39Z" id="a7Osp4ptf"></path><path d="M139.73 215.49C143.43 215.49 146.42 218.49 146.42 222.19C146.42 225.88 143.43 228.88 139.73 228.88C136.04 228.88 133.04 225.88 133.04 222.19C133.04 222.19 133.04 222.19 133.04 222.19C133.04 218.49 136.04 215.49 139.73 215.49Z" id="b29okL1Mb"></path><path d="M284.43 436.56C311.28 436.56 326.2 436.56 329.18 436.56C329.18 436.56 329.39 482.79 329.18 500.98C329.18 508.49 284.45 507.63 284.45 500.98C284.45 492.39 284.44 470.92 284.43 436.56Z" id="dXXpusYK0"></path><path d="M308.19 330.19C333.97 330.19 354.85 358.03 354.85 392.37C354.85 426.7 333.98 454.55 308.19 454.55C282.41 454.55 261.55 426.71 261.55 392.37C261.55 358.03 282.41 330.19 308.19 330.19Z" id="e1t5OeVgOK"></path><path d="M251.75 386.44C248.49 370 269.65 299.97 333.38 325.74C321.53 353.27 272.43 380.15 251.75 386.44Z" id="bvWsaSE2U"></path><path d="M362.29 386.44C376.56 366.13 343.66 323.92 307.14 324.89C298.17 328.31 327.34 374.96 362.29 386.44Z" id="a1ixiCoLnc"></path><path d="M386.17 -0.01C392.98 -0.02 398.5 5.5 398.51 12.31C398.51 19.12 392.99 24.65 386.18 24.65C386.18 24.65 386.17 24.65 386.17 24.65C379.36 24.65 373.84 19.13 373.84 12.33C373.84 5.51 379.36 -0.01 386.17 -0.01Z" id="b1Pv4yC5Al"></path><path d="M172.77 324.9C179.13 324.9 184.29 330.06 184.29 336.42C184.29 342.77 179.13 347.93 172.77 347.93C166.42 347.93 161.26 342.77 161.26 336.42C161.26 330.06 166.42 324.9 172.77 324.9Z" id="b9Pd2bZS0"></path><path d="M423.03 324.86C426.73 324.86 429.73 327.85 429.73 331.55C429.74 335.25 426.74 338.25 423.04 338.26C423.04 338.26 423.04 338.26 423.03 338.26C419.34 338.26 416.34 335.27 416.34 331.57C416.34 331.57 416.34 331.57 416.34 331.57C416.33 327.87 419.33 324.86 423.03 324.86Z" id="a47PnVxck8"></path><path d="M571.89 246.66C566.3 292.12 530.64 332.01 492.96 387.39C455.29 442.89 415.36 513.96 357.86 531.66C300.23 549.37 225.02 513.83 165.79 458.33C106.56 402.83 63.31 327.62 67.57 256.54C71.83 185.46 123.47 118.65 182.69 72.07C241.9 25.48 308.75 -0.87 367.71 6.98C426.68 14.83 477.78 56.89 515.59 103.48C553.25 150.06 577.61 201.18 571.89 246.66Z" id="bqoodSSX8"></path><path d="M371.78 364.74C375.72 391.7 371.22 414.03 372.34 446.63C373.11 468.59 382.77 483.25 388.97 502.82C395.16 522.4 229.82 527.33 230.81 509.02C231.79 490.71 243.62 471.96 244.05 449.16C244.48 425.92 241.17 411.96 241.62 374.15C241.96 344.29 269.31 312.41 308.18 312.41C347.03 312.41 367.9 338.38 371.78 364.74Z" id="alg8k1eb4"></path><path d="M148.65 639.65C147.16 621.27 155.35 555.74 180.69 506.81C275.31 454.41 394.03 479.36 440.97 506.81C456.87 522.96 468.36 630.21 464.88 637.91" id="cok6S6kQ"></path><path d="M203.27 637.93C204.76 626.01 207.12 606.8 210.96 589.01" id="b1vYBpqUAi"></path><path d="M413.13 637.4C411.64 625.48 409.28 606.27 405.43 588.48" id="auPd6CUPL"></path><path d="M258.64 386.97C264.45 386.96 269.17 391.67 269.17 397.49C269.18 403.3 264.48 408.01 258.67 408.02C252.86 408.03 248.13 403.33 248.12 397.52C248.12 397.51 248.12 397.51 248.12 397.5C248.12 391.69 252.83 386.97 258.64 386.97Z" id="c2YmHEiZyj"></path><path d="M355.17 386.97C360.98 386.96 365.7 391.67 365.7 397.49C365.71 403.3 361 408.02 355.18 408.02C355.18 408.02 355.18 408.02 355.18 408.02C349.37 408.02 344.65 403.31 344.65 397.5C344.65 391.69 349.36 386.97 355.17 386.97Z" id="b9RLdfC2"></path><path d="M335.2 222.78C333.53 228.28 333.66 237.99 341.98 237.78C349.28 244.33 356.07 235.86 358.16 231.55C360.24 227.25 365.37 217.91 350.1 216.3C339.48 208.01 336.86 217.27 335.2 222.78Z" id="d4Gp5Yal6"></path><path d="M357.12 210.39C353.46 211.68 351.4 213.44 350.23 216.49" id="h2bNhzosgv"></path><path d="M293.17 253.1C299.98 253.1 305.51 258.62 305.51 265.43C305.51 272.23 300.01 277.75 293.21 277.77C286.4 277.79 280.86 272.29 280.84 265.48C280.84 265.47 280.84 265.45 280.84 265.44C280.84 258.63 286.36 253.11 293.17 253.1Z" id="a7CJwDHtQx"></path><path d="M195.45 270.88L229.6 262.21L243.44 316.74L209.29 325.41L195.45 270.88Z" id="a1TNcb2hrz"></path><path d="M202.64 276.89L226.14 270.93L227.95 278.07L204.45 284.04L202.64 276.89Z" id="d4bjqULszT"></path><path d="M206.42 291.8L229.92 285.83" id="aeSFrbfVW"></path><path d="M208.4 299.56L231.9 293.56" id="epMRW0BK4"></path><path d="M210.46 307.64L233.98 301.67" id="aRAF1OzJv"></path><path d="M212.43 315.46L221.66 313.13" id="j5dj64iOO"></path><path d="M232.26 310.43L235.95 309.49" id="bhz05oXHR"></path><path d="M172.8 147.09L261.19 105L288.81 163.01L200.42 205.06L172.8 147.09Z" id="elofNmmaX"></path><path d="M203.37 192.26L212.16 166.53L228.54 169.58L234.98 137.84L250.8 140.48L255.41 118.09" id="b2vD7nz1gc"></path><path d="M211.22 162.14C213.49 161.05 216.21 162.02 217.3 164.29C218.38 166.57 217.41 169.29 215.14 170.37C212.86 171.45 210.14 170.49 209.06 168.22C207.98 165.94 208.94 163.22 211.22 162.14Z" id="b15cYyU11T"></path><path d="M233.23 134.48C235.51 133.4 238.23 134.37 239.31 136.64C240.4 138.92 239.43 141.64 237.16 142.72C234.89 143.81 232.17 142.85 231.08 140.58C231.08 140.57 231.08 140.57 231.08 140.56C229.99 138.29 230.96 135.57 233.23 134.48Z" id="b5alKa9kKG"></path><path d="M414.08 173.83C422.71 173.82 429.71 180.8 429.73 189.42C429.74 198.04 422.76 205.05 414.14 205.06C414.12 205.06 414.1 205.06 414.08 205.06C405.48 205.05 398.51 198.08 398.5 189.48C398.48 180.85 405.46 173.85 414.08 173.83Z" id="fPdOBMoAB"></path><path d="M440.47 186.76C440.92 188.35 441.15 190 441.14 191.65C441.15 201.56 433.11 209.6 423.2 209.61C422.02 209.61 420.84 209.49 419.69 209.26" id="aoqrOfu1N"></path><path d="M404.64 201.33L398.66 212.05L423.37 216.03L420.67 203.51" id="b3BQbF7bQH"></path><path d="M414.11 185.79C416.15 185.79 417.8 187.44 417.8 189.48C417.8 191.51 416.15 193.16 414.11 193.16C412.08 193.16 410.43 191.51 410.43 189.48C410.43 189.48 410.43 189.48 410.43 189.48C410.43 187.44 412.08 185.79 414.11 185.79Z" id="icgOHhW8y"></path><path d="M439.48 182.11C441.51 182.11 443.16 183.76 443.16 185.79C443.16 187.83 441.51 189.48 439.48 189.48C437.44 189.48 435.79 187.83 435.79 185.79C435.79 185.79 435.79 185.79 435.79 185.79C435.79 183.76 437.44 182.11 439.48 182.11Z" id="bigXlEpv7"></path><path d="M139.88 72.1L162.97 78.35L140.24 162.53L117.13 156.29L139.88 72.1Z" id="k2xJCwCLXk"></path><path d="M124.49 129.14L137.2 132.57" id="a2IP2nLJN5"></path><path d="M120.45 144.07L133.17 147.5" id="b5Jw7pNFH"></path><path d="M128.52 114.21L141.24 117.64" id="a3HD4ykKJI"></path><path d="M132.55 99.29L145.27 102.72" id="b1Prs3bzee"></path><path d="M136.58 84.34L149.3 87.78" id="bQQplDHI9"></path><path d="M377.7 54.68L464.88 75.7L450.49 135.14L363.34 114.09L377.7 54.68Z" id="ckSWwG5Cp"></path><path d="M441.18 112.16C446.23 113.38 449.33 118.46 448.11 123.5C446.89 128.55 441.81 131.65 436.77 130.43C436.77 130.43 436.77 130.43 436.77 130.43C431.73 129.22 428.62 124.14 429.84 119.09C431.06 114.05 436.14 110.95 441.18 112.16Z" id="d9Pa5DaD1"></path><path d="M432.62 126.84L426.35 143.18L435.1 141.2L440.72 146.41L441.85 128.61" id="a7fzcZW93"></path><path d="M382.85 70.07L451.68 86.69" id="j1C7l2S0fi"></path><path d="M378.86 86.38L420.43 96.41" id="ji55X4X31"></path><path d="M239.34 62.76L229.99 52.63L243.44 49.58L256.91 46.54L252.8 59.72L248.71 72.9L239.34 62.76Z" id="b6ngJueX5P"></path><path d="M425.19 275.3L412.37 280.43L414.34 266.76L416.3 253.09L427.14 261.62L437.99 270.14L425.19 275.3Z" id="b6HZ6NhFUm"></path><path d="M326.69 103.94C330.39 103.94 333.38 106.94 333.38 110.63C333.38 114.33 330.39 117.32 326.69 117.32C323 117.32 320 114.33 320 110.63C320 110.63 320 110.63 320 110.63C320 106.94 323 103.94 326.69 103.94Z" id="j1LzX6amfp"></path><path d="M139.73 216.03C143.43 216.03 146.42 219.02 146.42 222.72C146.42 226.41 143.43 229.41 139.73 229.41C136.04 229.41 133.04 226.41 133.04 222.72C133.04 222.72 133.04 222.72 133.04 222.72C133.04 219.02 136.04 216.03 139.73 216.03Z" id="b157PjMYS1"></path><path d="M284.43 437.1C311.28 437.1 326.2 437.1 329.18 437.1C329.18 437.1 329.39 483.33 329.18 501.52C329.18 509.03 284.45 508.16 284.45 501.52C284.45 492.93 284.44 471.46 284.43 437.1Z" id="b1pwH9xPVF"></path><path d="M308.19 330.73C333.97 330.73 354.85 358.56 354.85 392.9C354.85 427.25 333.98 455.08 308.19 455.08C282.41 455.08 261.55 427.24 261.55 392.9C261.55 358.56 282.41 330.73 308.19 330.73Z" id="d4Xkg7nl9T"></path><path d="M251.75 386.98C248.49 370.55 269.65 300.51 333.38 326.27C321.53 353.81 272.43 380.69 251.75 386.98Z" id="d1ZqkOEQeC"></path><path d="M362.28 386.98C376.56 366.66 343.66 324.46 307.14 325.42C298.17 328.82 327.34 375.49 362.28 386.98Z" id="jr9a8kQOM"></path><path d="M386.16 0.52C392.97 0.51 398.5 6.03 398.51 12.84C398.51 19.65 393 25.18 386.19 25.18C386.18 25.18 386.17 25.18 386.17 25.18C379.36 25.18 373.85 19.67 373.84 12.86C373.83 6.05 379.35 0.53 386.16 0.52Z" id="b3HpmNSJGS"></path><path d="M172.77 325.44C179.13 325.44 184.29 330.59 184.29 336.95C184.29 343.31 179.13 348.46 172.77 348.46C166.42 348.46 161.26 343.31 161.26 336.95C161.26 330.59 166.42 325.44 172.77 325.44Z" id="jB5Um1Xw9"></path><path d="M423.03 325.39C426.73 325.39 429.73 328.38 429.73 332.08C429.74 335.78 426.74 338.79 423.04 338.79C423.04 338.79 423.04 338.79 423.03 338.79C419.34 338.79 416.34 335.8 416.34 332.11C416.34 332.1 416.34 332.1 416.34 332.1C416.33 328.4 419.33 325.4 423.03 325.39Z" id="ehHsFfbVx"></path></defs><g><g><g><use xlink:href="#bdDJ0Wf0w" opacity="1" fill="#f2f2f2" fill-opacity="1"></use><g><use xlink:href="#bdDJ0Wf0w" opacity="1" fill-opacity="0" stroke="#000000" stroke-width="1" stroke-opacity="0"></use></g></g><g><use xlink:href="#a7nsI5xav" opacity="1" fill="#000000" fill-opacity="1"></use><g><use xlink:href="#a7nsI5xav" opacity="1" fill-opacity="0" stroke="#000000" stroke-width="1" stroke-opacity="0"></use></g></g><g><use xlink:href="#b2Q9wEifl1" opacity="1" fill="#ffd98e" fill-opacity="1"></use><g><use xlink:href="#b2Q9wEifl1" opacity="1" fill-opacity="0" stroke="#000000" stroke-width="1" stroke-opacity="0"></use></g></g><g><use xlink:href="#adzr0HRdq" opacity="1" fill="#000000" fill-opacity="0"></use><g><use xlink:href="#adzr0HRdq" opacity="1" fill-opacity="0" stroke="#ff8364" stroke-width="5.73" stroke-opacity="1"></use></g></g><g><use xlink:href="#c2Zi3OqW36" opacity="1" fill="#000000" fill-opacity="0"></use><g><use xlink:href="#c2Zi3OqW36" opacity="1" fill-opacity="0" stroke="#ff8364" stroke-width="5.73" stroke-opacity="1"></use></g></g><g><use xlink:href="#b1LA14lgP5" opacity="1" fill="#d18c65" fill-opacity="1"></use><g><use xlink:href="#b1LA14lgP5" opacity="1" fill-opacity="0" stroke="#000000" stroke-width="1" stroke-opacity="0"></use></g></g><g><use xlink:href="#ew8Lznzve" opacity="1" fill="#d18c65" fill-opacity="1"></use><g><use xlink:href="#ew8Lznzve" opacity="1" fill-opacity="0" stroke="#000000" stroke-width="1" stroke-opacity="0"></use></g></g><g><use xlink:href="#azwKl5KjH" opacity="1" fill="#ff8364" fill-opacity="1"></use><g><use xlink:href="#azwKl5KjH" opacity="1" fill-opacity="0" stroke="#000000" stroke-width="1" stroke-opacity="0"></use></g></g><g><use xlink:href="#fq8BbXF1" opacity="1" fill="#000000" fill-opacity="0"></use><g><use xlink:href="#fq8BbXF1" opacity="1" fill-opacity="0" stroke="#ffd98e" stroke-width="2.83" stroke-opacity="1"></use></g></g><g><use xlink:href="#b59rl3YelI" opacity="1" fill="#6bd5e1" fill-opacity="1"></use><g><use xlink:href="#b59rl3YelI" opacity="1" fill-opacity="0" stroke="#000000" stroke-width="1" stroke-opacity="0"></use></g></g><g><use xlink:href="#aq2XbAgBc" opacity="1" fill="#dfdfdf" fill-opacity="1"></use><g><use xlink:href="#aq2XbAgBc" opacity="1" fill-opacity="0" stroke="#000000" stroke-width="1" stroke-opacity="0"></use></g></g><g><use xlink:href="#a3qygx3iLQ" opacity="1" fill="#ff8364" fill-opacity="1"></use><g><use xlink:href="#a3qygx3iLQ" opacity="1" fill-opacity="0" stroke="#000000" stroke-width="1" stroke-opacity="0"></use></g></g><g><use xlink:href="#b5AwoDKs" opacity="1" fill="#000000" fill-opacity="0"></use><g><use xlink:href="#b5AwoDKs" opacity="1" fill-opacity="0" stroke="#6bd5e1" stroke-width="3.11" stroke-opacity="1"></use></g></g><g><use xlink:href="#c2Bkk3UuLl" opacity="1" fill="#000000" fill-opacity="0"></use><g><use xlink:href="#c2Bkk3UuLl" opacity="1" fill-opacity="0" stroke="#6bd5e1" stroke-width="3.11" stroke-opacity="1"></use></g></g><g><use xlink:href="#c1qrWWbHTI" opacity="1" fill="#000000" fill-opacity="0"></use><g><use xlink:href="#c1qrWWbHTI" opacity="1" fill-opacity="0" stroke="#6bd5e1" stroke-width="3.11" stroke-opacity="1"></use></g></g><g><use xlink:href="#g1MrreqNfG" opacity="1" fill="#000000" fill-opacity="0"></use><g><use xlink:href="#g1MrreqNfG" opacity="1" fill-opacity="0" stroke="#6bd5e1" stroke-width="3.11" stroke-opacity="1"></use></g></g><g><use xlink:href="#a2jrBqKsKX" opacity="1" fill="#000000" fill-opacity="0"></use><g><use xlink:href="#a2jrBqKsKX" opacity="1" fill-opacity="0" stroke="#6bd5e1" stroke-width="3.11" stroke-opacity="1"></use></g></g><g><use xlink:href="#eSlBxwCcn" opacity="1" fill="#dfdfdf" fill-opacity="1"></use><g><use xlink:href="#eSlBxwCcn" opacity="1" fill-opacity="0" stroke="#000000" stroke-width="1" stroke-opacity="0"></use></g></g><g><use xlink:href="#b1gcMAPv2n" opacity="1" fill="#000000" fill-opacity="0"></use><g><use xlink:href="#b1gcMAPv2n" opacity="1" fill-opacity="0" stroke="#ff8364" stroke-width="3.11" stroke-opacity="1"></use></g></g><g><use xlink:href="#f4yqBZOFd" opacity="1" fill="#ffd98e" fill-opacity="1"></use><g><use xlink:href="#f4yqBZOFd" opacity="1" fill-opacity="0" stroke="#000000" stroke-width="1" stroke-opacity="0"></use></g></g><g><use xlink:href="#d1sGwJiCKf" opacity="1" fill="#ffd98e" fill-opacity="1"></use><g><use xlink:href="#d1sGwJiCKf" opacity="1" fill-opacity="0" stroke="#000000" stroke-width="1" stroke-opacity="0"></use></g></g><g><use xlink:href="#b1PO7ItvyE" opacity="1" fill="#ffd98e" fill-opacity="1"></use><g><use xlink:href="#b1PO7ItvyE" opacity="1" fill-opacity="0" stroke="#000000" stroke-width="1" stroke-opacity="0"></use></g></g><g><use xlink:href="#aam0jrClH" opacity="1" fill="#000000" fill-opacity="0"></use><g><use xlink:href="#aam0jrClH" opacity="1" fill-opacity="0" stroke="#ff8364" stroke-width="3.11" stroke-opacity="1"></use></g></g><g><use xlink:href="#cA4zrAx9a" opacity="1" fill="#ffd98e" fill-opacity="1"></use><g><use xlink:href="#cA4zrAx9a" opacity="1" fill-opacity="0" stroke="#000000" stroke-width="1" stroke-opacity="0"></use></g></g><g><use xlink:href="#ajw7Rm8l3" opacity="1" fill="#1b3c87" fill-opacity="1"></use><g><use xlink:href="#ajw7Rm8l3" opacity="1" fill-opacity="0" stroke="#000000" stroke-width="1" stroke-opacity="0"></use></g></g><g><use xlink:href="#e3zO9a9QhB" opacity="1" fill="#ffd98e" fill-opacity="1"></use><g><use xlink:href="#e3zO9a9QhB" opacity="1" fill-opacity="0" stroke="#000000" stroke-width="1" stroke-opacity="0"></use></g></g><g><use xlink:href="#dPLDx5uIj" opacity="1" fill="#ff8364" fill-opacity="1"></use><g><use xlink:href="#dPLDx5uIj" opacity="1" fill-opacity="0" stroke="#000000" stroke-width="1" stroke-opacity="0"></use></g></g><g><use xlink:href="#b6UC6x0Y0" opacity="1" fill="#000000" fill-opacity="0"></use><g><use xlink:href="#b6UC6x0Y0" opacity="1" fill-opacity="0" stroke="#ffd98e" stroke-width="4.23" stroke-opacity="1"></use></g></g><g><use xlink:href="#c4myhMi34H" opacity="1" fill="#000000" fill-opacity="0"></use><g><use xlink:href="#c4myhMi34H" opacity="1" fill-opacity="0" stroke="#ffd98e" stroke-width="4.23" stroke-opacity="1"></use></g></g><g><use xlink:href="#bQvJ0Cv00" opacity="1" fill="#000000" fill-opacity="0"></use><g><use xlink:href="#bQvJ0Cv00" opacity="1" fill-opacity="0" stroke="#ffd98e" stroke-width="4.23" stroke-opacity="1"></use></g></g><g><use xlink:href="#b18It48JYi" opacity="1" fill="#000000" fill-opacity="0"></use><g><use xlink:href="#b18It48JYi" opacity="1" fill-opacity="0" stroke="#ffd98e" stroke-width="4.23" stroke-opacity="1"></use></g></g><g><use xlink:href="#d5wnKg5GKQ" opacity="1" fill="#000000" fill-opacity="0"></use><g><use xlink:href="#d5wnKg5GKQ" opacity="1" fill-opacity="0" stroke="#ffd98e" stroke-width="4.23" stroke-opacity="1"></use></g></g><g><use xlink:href="#acixPXgsW" opacity="1" fill="#dfdfdf" fill-opacity="1"></use><g><use xlink:href="#acixPXgsW" opacity="1" fill-opacity="0" stroke="#000000" stroke-width="1" stroke-opacity="0"></use></g></g><g><use xlink:href="#b28Ol96Slw" opacity="1" fill="#ff8364" fill-opacity="1"></use><g><use xlink:href="#b28Ol96Slw" opacity="1" fill-opacity="0" stroke="#000000" stroke-width="1" stroke-opacity="0"></use></g></g><g><use xlink:href="#g5Pr8CvYpy" opacity="1" fill="#ff8364" fill-opacity="1"></use><g><use xlink:href="#g5Pr8CvYpy" opacity="1" fill-opacity="0" stroke="#000000" stroke-width="1" stroke-opacity="0"></use></g></g><g><use xlink:href="#b1xBOkV2HW" opacity="1" fill="#000000" fill-opacity="0"></use><g><use xlink:href="#b1xBOkV2HW" opacity="1" fill-opacity="0" stroke="#6bd5e1" stroke-width="3.11" stroke-opacity="1"></use></g></g><g><use xlink:href="#a12dfPWBHG" opacity="1" fill="#000000" fill-opacity="0"></use><g><use xlink:href="#a12dfPWBHG" opacity="1" fill-opacity="0" stroke="#6bd5e1" stroke-width="3.11" stroke-opacity="1"></use></g></g><g><use xlink:href="#a55GPUAAoT" opacity="1" fill="#6bd5e1" fill-opacity="1"></use><g><use xlink:href="#a55GPUAAoT" opacity="1" fill-opacity="0" stroke="#000000" stroke-width="1" stroke-opacity="0"></use></g></g><g><use xlink:href="#bzcVt6MO" opacity="1" fill="#ffd98e" fill-opacity="1"></use><g><use xlink:href="#bzcVt6MO" opacity="1" fill-opacity="0" stroke="#000000" stroke-width="1" stroke-opacity="0"></use></g></g><g><use xlink:href="#a7Osp4ptf" opacity="1" fill="#000000" fill-opacity="0"></use><g><use xlink:href="#a7Osp4ptf" opacity="1" fill-opacity="0" stroke="#ff8364" stroke-width="3.11" stroke-opacity="1"></use></g></g><g><use xlink:href="#b29okL1Mb" opacity="1" fill="#ffd98e" fill-opacity="1"></use><g><use xlink:href="#b29okL1Mb" opacity="1" fill-opacity="0" stroke="#000000" stroke-width="1" stroke-opacity="0"></use></g></g><g><use xlink:href="#dXXpusYK0" opacity="1" fill="#d18c65" fill-opacity="1"></use><g><use xlink:href="#dXXpusYK0" opacity="1" fill-opacity="0" stroke="#000000" stroke-width="1" stroke-opacity="0"></use></g></g><g><use xlink:href="#e1t5OeVgOK" opacity="1" fill="#e49d75" fill-opacity="1"></use><g><use xlink:href="#e1t5OeVgOK" opacity="1" fill-opacity="0" stroke="#000000" stroke-width="1" stroke-opacity="0"></use></g></g><g><use xlink:href="#bvWsaSE2U" opacity="1" fill="#000000" fill-opacity="1"></use><g><use xlink:href="#bvWsaSE2U" opacity="1" fill-opacity="0" stroke="#000000" stroke-width="1" stroke-opacity="0"></use></g></g><g><use xlink:href="#a1ixiCoLnc" opacity="1" fill="#000000" fill-opacity="1"></use><g><use xlink:href="#a1ixiCoLnc" opacity="1" fill-opacity="0" stroke="#000000" stroke-width="1" stroke-opacity="0"></use></g></g><g><use xlink:href="#b1Pv4yC5Al" opacity="1" fill="#ffd98e" fill-opacity="1"></use><g><use xlink:href="#b1Pv4yC5Al" opacity="1" fill-opacity="0" stroke="#000000" stroke-width="1" stroke-opacity="0"></use></g></g><g><use xlink:href="#b9Pd2bZS0" opacity="1" fill="#000000" fill-opacity="0"></use><g><use xlink:href="#b9Pd2bZS0" opacity="1" fill-opacity="0" stroke="#6bd5e1" stroke-width="3.11" stroke-opacity="1"></use></g></g><g><use xlink:href="#a47PnVxck8" opacity="1" fill="#000000" fill-opacity="0"></use><g><use xlink:href="#a47PnVxck8" opacity="1" fill-opacity="0" stroke="#ff8364" stroke-width="3.11" stroke-opacity="1"></use></g></g><g><use xlink:href="#bqoodSSX8" opacity="1" fill="#ffffff" fill-opacity="0.38"></use><g><use xlink:href="#bqoodSSX8" opacity="1" fill-opacity="0" stroke="#000000" stroke-width="1" stroke-opacity="0"></use></g></g><g><use xlink:href="#alg8k1eb4" opacity="1" fill="#000000" fill-opacity="1"></use><g><use xlink:href="#alg8k1eb4" opacity="1" fill-opacity="0" stroke="#000000" stroke-width="1" stroke-opacity="0"></use></g></g><g><use xlink:href="#cok6S6kQ" opacity="1" fill="#8e8eff" fill-opacity="1"></use><g><use xlink:href="#cok6S6kQ" opacity="1" fill-opacity="0" stroke="#000000" stroke-width="1" stroke-opacity="0"></use></g></g><g><use xlink:href="#b1vYBpqUAi" opacity="1" fill="#000000" fill-opacity="0"></use><g><use xlink:href="#b1vYBpqUAi" opacity="1" fill-opacity="0" stroke="#7e64ff" stroke-width="5.73" stroke-opacity="1"></use></g></g><g><use xlink:href="#auPd6CUPL" opacity="1" fill="#000000" fill-opacity="0"></use><g><use xlink:href="#auPd6CUPL" opacity="1" fill-opacity="0" stroke="#7e64ff" stroke-width="5.73" stroke-opacity="1"></use></g></g><g><use xlink:href="#c2YmHEiZyj" opacity="1" fill="#d18c65" fill-opacity="1"></use><g><use xlink:href="#c2YmHEiZyj" opacity="1" fill-opacity="0" stroke="#000000" stroke-width="1" stroke-opacity="0"></use></g></g><g><use xlink:href="#b9RLdfC2" opacity="1" fill="#d18c65" fill-opacity="1"></use><g><use xlink:href="#b9RLdfC2" opacity="1" fill-opacity="0" stroke="#000000" stroke-width="1" stroke-opacity="0"></use></g></g><g><use xlink:href="#d4Gp5Yal6" opacity="1" fill="#ff8364" fill-opacity="1"></use><g><use xlink:href="#d4Gp5Yal6" opacity="1" fill-opacity="0" stroke="#000000" stroke-width="1" stroke-opacity="0"></use></g></g><g><use xlink:href="#h2bNhzosgv" opacity="1" fill="#000000" fill-opacity="0"></use><g><use xlink:href="#h2bNhzosgv" opacity="1" fill-opacity="0" stroke="#ffd98e" stroke-width="2.83" stroke-opacity="1"></use></g></g><g><use xlink:href="#a7CJwDHtQx" opacity="1" fill="#6bd5e1" fill-opacity="1"></use><g><use xlink:href="#a7CJwDHtQx" opacity="1" fill-opacity="0" stroke="#000000" stroke-width="1" stroke-opacity="0"></use></g></g><g><use xlink:href="#a1TNcb2hrz" opacity="1" fill="#dfdfdf" fill-opacity="1"></use><g><use xlink:href="#a1TNcb2hrz" opacity="1" fill-opacity="0" stroke="#000000" stroke-width="1" stroke-opacity="0"></use></g></g><g><use xlink:href="#d4bjqULszT" opacity="1" fill="#ff8364" fill-opacity="1"></use><g><use xlink:href="#d4bjqULszT" opacity="1" fill-opacity="0" stroke="#000000" stroke-width="1" stroke-opacity="0"></use></g></g><g><use xlink:href="#aeSFrbfVW" opacity="1" fill="#000000" fill-opacity="0"></use><g><use xlink:href="#aeSFrbfVW" opacity="1" fill-opacity="0" stroke="#6bd5e1" stroke-width="3.11" stroke-opacity="1"></use></g></g><g><use xlink:href="#epMRW0BK4" opacity="1" fill="#000000" fill-opacity="0"></use><g><use xlink:href="#epMRW0BK4" opacity="1" fill-opacity="0" stroke="#6bd5e1" stroke-width="3.11" stroke-opacity="1"></use></g></g><g><use xlink:href="#aRAF1OzJv" opacity="1" fill="#000000" fill-opacity="0"></use><g><use xlink:href="#aRAF1OzJv" opacity="1" fill-opacity="0" stroke="#6bd5e1" stroke-width="3.11" stroke-opacity="1"></use></g></g><g><use xlink:href="#j5dj64iOO" opacity="1" fill="#000000" fill-opacity="0"></use><g><use xlink:href="#j5dj64iOO" opacity="1" fill-opacity="0" stroke="#6bd5e1" stroke-width="3.11" stroke-opacity="1"></use></g></g><g><use xlink:href="#bhz05oXHR" opacity="1" fill="#000000" fill-opacity="0"></use><g><use xlink:href="#bhz05oXHR" opacity="1" fill-opacity="0" stroke="#6bd5e1" stroke-width="3.11" stroke-opacity="1"></use></g></g><g><use xlink:href="#elofNmmaX" opacity="1" fill="#dfdfdf" fill-opacity="1"></use><g><use xlink:href="#elofNmmaX" opacity="1" fill-opacity="0" stroke="#000000" stroke-width="1" stroke-opacity="0"></use></g></g><g><use xlink:href="#b2vD7nz1gc" opacity="1" fill="#000000" fill-opacity="0"></use><g><use xlink:href="#b2vD7nz1gc" opacity="1" fill-opacity="0" stroke="#ff8364" stroke-width="3.11" stroke-opacity="1"></use></g></g><g><use xlink:href="#b15cYyU11T" opacity="1" fill="#ffd98e" fill-opacity="1"></use><g><use xlink:href="#b15cYyU11T" opacity="1" fill-opacity="0" stroke="#000000" stroke-width="1" stroke-opacity="0"></use></g></g><g><use xlink:href="#b5alKa9kKG" opacity="1" fill="#ffd98e" fill-opacity="1"></use><g><use xlink:href="#b5alKa9kKG" opacity="1" fill-opacity="0" stroke="#000000" stroke-width="1" stroke-opacity="0"></use></g></g><g><use xlink:href="#fPdOBMoAB" opacity="1" fill="#ffd98e" fill-opacity="1"></use><g><use xlink:href="#fPdOBMoAB" opacity="1" fill-opacity="0" stroke="#000000" stroke-width="1" stroke-opacity="0"></use></g></g><g><use xlink:href="#aoqrOfu1N" opacity="1" fill="#000000" fill-opacity="0"></use><g><use xlink:href="#aoqrOfu1N" opacity="1" fill-opacity="0" stroke="#ff8364" stroke-width="3.11" stroke-opacity="1"></use></g></g><g><use xlink:href="#b3BQbF7bQH" opacity="1" fill="#ffd98e" fill-opacity="1"></use><g><use xlink:href="#b3BQbF7bQH" opacity="1" fill-opacity="0" stroke="#000000" stroke-width="1" stroke-opacity="0"></use></g></g><g><use xlink:href="#icgOHhW8y" opacity="1" fill="#1b3c87" fill-opacity="1"></use><g><use xlink:href="#icgOHhW8y" opacity="1" fill-opacity="0" stroke="#000000" stroke-width="1" stroke-opacity="0"></use></g></g><g><use xlink:href="#bigXlEpv7" opacity="1" fill="#ffd98e" fill-opacity="1"></use><g><use xlink:href="#bigXlEpv7" opacity="1" fill-opacity="0" stroke="#000000" stroke-width="1" stroke-opacity="0"></use></g></g><g><use xlink:href="#k2xJCwCLXk" opacity="1" fill="#ff8364" fill-opacity="1"></use><g><use xlink:href="#k2xJCwCLXk" opacity="1" fill-opacity="0" stroke="#000000" stroke-width="1" stroke-opacity="0"></use></g></g><g><use xlink:href="#a2IP2nLJN5" opacity="1" fill="#000000" fill-opacity="0"></use><g><use xlink:href="#a2IP2nLJN5" opacity="1" fill-opacity="0" stroke="#ffd98e" stroke-width="4.23" stroke-opacity="1"></use></g></g><g><use xlink:href="#b5Jw7pNFH" opacity="1" fill="#000000" fill-opacity="0"></use><g><use xlink:href="#b5Jw7pNFH" opacity="1" fill-opacity="0" stroke="#ffd98e" stroke-width="4.23" stroke-opacity="1"></use></g></g><g><use xlink:href="#a3HD4ykKJI" opacity="1" fill="#000000" fill-opacity="0"></use><g><use xlink:href="#a3HD4ykKJI" opacity="1" fill-opacity="0" stroke="#ffd98e" stroke-width="4.23" stroke-opacity="1"></use></g></g><g><use xlink:href="#b1Prs3bzee" opacity="1" fill="#000000" fill-opacity="0"></use><g><use xlink:href="#b1Prs3bzee" opacity="1" fill-opacity="0" stroke="#ffd98e" stroke-width="4.23" stroke-opacity="1"></use></g></g><g><use xlink:href="#bQQplDHI9" opacity="1" fill="#000000" fill-opacity="0"></use><g><use xlink:href="#bQQplDHI9" opacity="1" fill-opacity="0" stroke="#ffd98e" stroke-width="4.23" stroke-opacity="1"></use></g></g><g><use xlink:href="#ckSWwG5Cp" opacity="1" fill="#dfdfdf" fill-opacity="1"></use><g><use xlink:href="#ckSWwG5Cp" opacity="1" fill-opacity="0" stroke="#000000" stroke-width="1" stroke-opacity="0"></use></g></g><g><use xlink:href="#d9Pa5DaD1" opacity="1" fill="#ff8364" fill-opacity="1"></use><g><use xlink:href="#d9Pa5DaD1" opacity="1" fill-opacity="0" stroke="#000000" stroke-width="1" stroke-opacity="0"></use></g></g><g><use xlink:href="#a7fzcZW93" opacity="1" fill="#ff8364" fill-opacity="1"></use><g><use xlink:href="#a7fzcZW93" opacity="1" fill-opacity="0" stroke="#000000" stroke-width="1" stroke-opacity="0"></use></g></g><g><use xlink:href="#j1C7l2S0fi" opacity="1" fill="#000000" fill-opacity="0"></use><g><use xlink:href="#j1C7l2S0fi" opacity="1" fill-opacity="0" stroke="#6bd5e1" stroke-width="3.11" stroke-opacity="1"></use></g></g><g><use xlink:href="#ji55X4X31" opacity="1" fill="#000000" fill-opacity="0"></use><g><use xlink:href="#ji55X4X31" opacity="1" fill-opacity="0" stroke="#6bd5e1" stroke-width="3.11" stroke-opacity="1"></use></g></g><g><use xlink:href="#b6ngJueX5P" opacity="1" fill="#6bd5e1" fill-opacity="1"></use><g><use xlink:href="#b6ngJueX5P" opacity="1" fill-opacity="0" stroke="#000000" stroke-width="1" stroke-opacity="0"></use></g></g><g><use xlink:href="#b6HZ6NhFUm" opacity="1" fill="#ffd98e" fill-opacity="1"></use><g><use xlink:href="#b6HZ6NhFUm" opacity="1" fill-opacity="0" stroke="#000000" stroke-width="1" stroke-opacity="0"></use></g></g><g><use xlink:href="#j1LzX6amfp" opacity="1" fill="#000000" fill-opacity="0"></use><g><use xlink:href="#j1LzX6amfp" opacity="1" fill-opacity="0" stroke="#ff8364" stroke-width="3.11" stroke-opacity="1"></use></g></g><g><use xlink:href="#b157PjMYS1" opacity="1" fill="#ffd98e" fill-opacity="1"></use><g><use xlink:href="#b157PjMYS1" opacity="1" fill-opacity="0" stroke="#000000" stroke-width="1" stroke-opacity="0"></use></g></g><g><use xlink:href="#b1pwH9xPVF" opacity="1" fill="#d18c65" fill-opacity="1"></use><g><use xlink:href="#b1pwH9xPVF" opacity="1" fill-opacity="0" stroke="#000000" stroke-width="1" stroke-opacity="0"></use></g></g><g><use xlink:href="#d4Xkg7nl9T" opacity="1" fill="#e49d75" fill-opacity="1"></use><g><use xlink:href="#d4Xkg7nl9T" opacity="1" fill-opacity="0" stroke="#000000" stroke-width="1" stroke-opacity="0"></use></g></g><g><use xlink:href="#d1ZqkOEQeC" opacity="1" fill="#000000" fill-opacity="1"></use><g><use xlink:href="#d1ZqkOEQeC" opacity="1" fill-opacity="0" stroke="#000000" stroke-width="1" stroke-opacity="0"></use></g></g><g><use xlink:href="#jr9a8kQOM" opacity="1" fill="#000000" fill-opacity="1"></use><g><use xlink:href="#jr9a8kQOM" opacity="1" fill-opacity="0" stroke="#000000" stroke-width="1" stroke-opacity="0"></use></g></g><g><use xlink:href="#b3HpmNSJGS" opacity="1" fill="#ffd98e" fill-opacity="1"></use><g><use xlink:href="#b3HpmNSJGS" opacity="1" fill-opacity="0" stroke="#000000" stroke-width="1" stroke-opacity="0"></use></g></g><g><use xlink:href="#jB5Um1Xw9" opacity="1" fill="#000000" fill-opacity="0"></use><g><use xlink:href="#jB5Um1Xw9" opacity="1" fill-opacity="0" stroke="#6bd5e1" stroke-width="3.11" stroke-opacity="1"></use></g></g><g><use xlink:href="#ehHsFfbVx" opacity="1" fill="#000000" fill-opacity="0"></use><g><use xlink:href="#ehHsFfbVx" opacity="1" fill-opacity="0" stroke="#ff8364" stroke-width="3.11" stroke-opacity="1"></use></g></g></g></g></svg>